HIERARCHY
ROOT joint_Root
{
	OFFSET 0.0 0.0 0.0
	CHANNELS 6 Xposition Yposition Zposition Zrotation Xrotation Yrotation 
	JOINT Hips
	{
		OFFSET -17.1583 93.1646 452.98
		CHANNELS 6 Xposition Yposition Zposition Zrotation Xrotation Yrotation 
		JOINT Spine
		{
			OFFSET 15.7357 0.0 0.0
			CHANNELS 6 Xposition Yposition Zposition Zrotation Xrotation Yrotation 
			JOINT Chest
			{
				OFFSET 8.98455 -0.406207 0.0
				CHANNELS 6 Xposition Yposition Zposition Zrotation Xrotation Yrotation 
				JOINT Neck
				{
					OFFSET 16.3773 0.0 0.0
					CHANNELS 6 Xposition Yposition Zposition Zrotation Xrotation Yrotation 
					JOINT Head
					{
						OFFSET 6.45672 0.0 0.0
						CHANNELS 6 Xposition Yposition Zposition Zrotation Xrotation Yrotation 
						End Site
						{
							OFFSET 0.0 0.0 0.0
						}
					}
				}
				JOINT Shoulder_L
				{
					OFFSET 12.9942 -0.242716 4.98039
					CHANNELS 6 Xposition Yposition Zposition Zrotation Xrotation Yrotation 
					JOINT UpperArm_L
					{
						OFFSET 5.34809 0.0 0.0
						CHANNELS 6 Xposition Yposition Zposition Zrotation Xrotation Yrotation 
						JOINT LowerArm_L
						{
							OFFSET 24.3286 1.87007e-05 0.0
							CHANNELS 6 Xposition Yposition Zposition Zrotation Xrotation Yrotation 
							JOINT Hand_L
							{
								OFFSET 22.2916 0.0 0.0
								CHANNELS 6 Xposition Yposition Zposition Zrotation Xrotation Yrotation 
								End Site
								{
									OFFSET 0.0 0.0 0.0
								}
							}
						}
					}
				}
				JOINT Shoulder_R
				{
					OFFSET 12.9945 -0.242716 -4.98039
					CHANNELS 6 Xposition Yposition Zposition Zrotation Xrotation Yrotation 
					JOINT UpperArm_R
					{
						OFFSET -5.34813 0.0 0.0
						CHANNELS 6 Xposition Yposition Zposition Zrotation Xrotation Yrotation 
						JOINT LowerArm_R
						{
							OFFSET -24.3289 0.000322201 0.0
							CHANNELS 6 Xposition Yposition Zposition Zrotation Xrotation Yrotation 
							JOINT Hand_R
							{
								OFFSET -22.2915 -0.000108084 0.0
								CHANNELS 6 Xposition Yposition Zposition Zrotation Xrotation Yrotation 
								End Site
								{
									OFFSET 0.0 0.0 0.0
								}
							}
						}
					}
				}
			}
		}
		JOINT UpperLeg_L
		{
			OFFSET -2.19248 -6.46944 0.0
			CHANNELS 6 Xposition Yposition Zposition Zrotation Xrotation Yrotation 
			JOINT LowerLeg_L
			{
				OFFSET 39.0811 0.0 -1.23785e-05
				CHANNELS 6 Xposition Yposition Zposition Zrotation Xrotation Yrotation 
				JOINT Foot_L
				{
					OFFSET 40.9854 0.0 -1.26872e-05
					CHANNELS 6 Xposition Yposition Zposition Zrotation Xrotation Yrotation 
					JOINT Toes_L
					{
						OFFSET 11.7543 0.0 0.0
						CHANNELS 6 Xposition Yposition Zposition Zrotation Xrotation Yrotation 
						End Site
						{
							OFFSET 0.0 0.0 0.0
						}
					}
				}
			}
		}
		JOINT UpperLeg_R
		{
			OFFSET -2.19251 6.46944 0.0
			CHANNELS 6 Xposition Yposition Zposition Zrotation Xrotation Yrotation 
			JOINT LowerLeg_R
			{
				OFFSET -39.0811 -0.00228153 -0.0401928
				CHANNELS 6 Xposition Yposition Zposition Zrotation Xrotation Yrotation 
				JOINT Foot_R
				{
					OFFSET -40.9854 0.0 0.0
					CHANNELS 6 Xposition Yposition Zposition Zrotation Xrotation Yrotation 
					JOINT Toes_R
					{
						OFFSET -11.7543 0.0 0.0
						CHANNELS 6 Xposition Yposition Zposition Zrotation Xrotation Yrotation 
						End Site
						{
							OFFSET 0.0 0.0 0.0
						}
					}
				}
			}
		}
	}
}
MOTION
Frames:	6
Frame Time:	0.0333333
0.000000 0.000000 0.000000 0.000000 0.000000 -0.000000 -3.171940 91.507000 1.421090 82.535700 -3.247020 1.790930 15.735700 0.000005 -0.000001 97.840200 88.065100 -95.392600 8.984550 -0.406207 -0.000000 -3.933670 0.277803 4.906860 16.377300 -0.000001 -0.000001 10.094600 0.387574 -7.820740 6.456720 -0.000001 -0.000000 5.591910 -3.387980 -19.963200 12.994200 -0.242716 4.980390 -93.164400 8.689580 -69.900700 5.348090 -0.000007 -0.000001 -73.238800 5.869980 1.571680 24.328600 0.000019 0.000005 34.354700 -38.382600 -132.251000 22.291600 -0.000001 0.000005 43.294800 5.022940 6.827540 12.994500 -0.242716 -4.980390 88.431100 4.728930 -71.622200 -5.348130 -0.000001 -0.000004 -72.651700 31.499000 -2.669570 -24.328900 0.000322 -0.000009 2.192080 7.414690 -16.528500 -22.291500 -0.000108 -0.000004 1.488870 5.249850 1.436820 -2.192480 -6.469440 -0.000000 -170.254000 -0.581472 -4.834150 39.081100 -0.000007 -0.000012 0.472021 -0.818463 29.974100 40.985400 -0.000006 -0.000013 1.095080 7.577640 -78.889100 11.754300 -0.000000 0.000003 -0.000141 0.169971 -9.682760 -2.192510 6.469440 -0.000001 -168.520000 6.295680 -177.074000 -39.081100 -0.002282 -0.040193 0.108274 -0.378875 15.482300 -40.985400 0.000008 0.000006 4.680150 2.173340 -72.128900 -11.754300 -0.000006 -0.000006 -0.012221 0.287211 -4.899900
0.000000 0.000000 0.000000 0.000000 0.000000 -0.000000 -3.165090 91.512900 1.407590 82.534800 -3.242330 1.794070 15.735700 0.000005 -0.000001 97.335300 88.058900 -94.876100 8.984550 -0.406207 -0.000000 -3.916190 0.244800 4.929000 16.377300 -0.000001 -0.000001 10.079600 0.406333 -7.824090 6.456720 -0.000001 -0.000000 5.603280 -3.330740 -19.891600 12.994200 -0.242716 4.980390 -93.158100 8.678200 -69.913600 5.348090 -0.000007 -0.000001 -73.228700 5.750470 1.563230 24.328600 0.000019 0.000005 34.296400 -38.370700 -132.306000 22.291600 -0.000001 0.000005 43.344600 5.024980 6.783330 12.994500 -0.242716 -4.980390 88.435300 4.725160 -71.654900 -5.348130 -0.000001 -0.000004 -72.628400 31.381800 -2.621570 -24.328900 0.000322 -0.000009 2.170650 7.357470 -16.495300 -22.291500 -0.000108 -0.000004 1.520790 5.251080 1.403870 -2.192480 -6.469440 -0.000000 -170.243000 -0.585785 -4.838940 39.081100 -0.000007 -0.000012 0.466326 -0.808774 29.968400 40.985400 -0.000006 -0.000013 0.999623 7.624520 -78.836300 11.754300 -0.000000 0.000003 -0.000129 0.169765 -9.691100 -2.192510 6.469440 -0.000001 -168.540000 6.324970 -177.102000 -39.081100 -0.002282 -0.040193 0.106416 -0.371247 15.518900 -40.985400 0.000008 0.000006 4.516550 2.208290 -72.101300 -11.754300 -0.000006 -0.000006 -0.011941 0.285280 -4.979010
0.000000 0.000000 0.000000 0.000000 0.000000 -0.000000 -3.155870 91.519300 1.376530 82.570900 -3.205150 1.774330 15.735700 0.000005 -0.000001 96.991400 88.048600 -94.536800 8.984550 -0.406207 -0.000000 -3.892390 0.225182 4.919040 16.377300 -0.000001 -0.000001 10.077200 0.422799 -7.798030 6.456720 -0.000001 -0.000000 5.536390 -3.298010 -19.829900 12.994200 -0.242716 4.980390 -93.149400 8.655980 -69.918000 5.348090 -0.000007 -0.000001 -73.232800 5.635260 1.478690 24.328600 0.000019 0.000005 34.451600 -38.501800 -132.222000 22.291600 -0.000001 0.000005 43.314500 5.023810 6.808580 12.994500 -0.242716 -4.980390 88.432400 4.735330 -71.659300 -5.348130 -0.000001 -0.000004 -72.574700 31.203000 -2.646460 -24.328900 0.000322 -0.000009 2.204530 7.511220 -16.416300 -22.291500 -0.000108 -0.000004 1.421070 5.253290 1.345860 -2.192480 -6.469440 -0.000000 -170.278000 -0.554252 -4.895890 39.081100 -0.000007 -0.000012 0.459339 -0.796985 29.958100 40.985400 -0.000006 -0.000013 0.961220 7.650400 -78.789700 11.754300 -0.000000 0.000003 -0.000193 0.170815 -9.648460 -2.192510 6.469440 -0.000001 -168.586000 6.434490 -177.140000 -39.081100 -0.002282 -0.040193 0.107061 -0.373851 15.507700 -40.985400 0.000008 0.000006 4.620060 2.281390 -72.120300 -11.754300 -0.000006 -0.000006 -0.012222 0.287221 -4.899510
0.000000 0.000000 0.000000 0.000000 0.000000 -0.000000 -3.155560 91.517200 1.361980 82.542200 -3.203080 1.784970 15.735700 0.000005 -0.000001 97.177200 88.027200 -94.706000 8.984550 -0.406207 -0.000000 -3.851720 0.242290 4.952650 16.377300 -0.000001 -0.000001 10.072200 0.411877 -7.764710 6.456720 -0.000001 -0.000000 5.489970 -3.263250 -19.771900 12.994200 -0.242716 4.980390 -93.167500 8.700970 -69.907000 5.348090 -0.000007 -0.000001 -73.118400 5.495130 1.358110 24.328600 0.000019 0.000005 34.052800 -38.300200 -132.522000 22.291600 -0.000001 0.000005 43.152900 5.027540 6.727580 12.994500 -0.242716 -4.980390 88.427100 4.744580 -71.634700 -5.348130 -0.000001 -0.000004 -72.499000 31.235800 -2.646910 -24.328900 0.000322 -0.000009 2.216690 7.544520 -16.433600 -22.291500 -0.000108 -0.000004 1.502850 5.250850 1.410150 -2.192480 -6.469440 -0.000000 -170.267000 -0.583839 -4.891100 39.081100 -0.000007 -0.000012 0.470689 -0.816423 29.965900 40.985400 -0.000006 -0.000013 1.116960 7.606780 -78.835200 11.754300 -0.000000 0.000003 -0.000143 0.169998 -9.681660 -2.192510 6.469440 -0.000001 -168.557000 6.433910 -177.149000 -39.081100 -0.002282 -0.040193 0.106779 -0.372312 15.528500 -40.985400 0.000008 0.000006 4.593380 2.261920 -72.128300 -11.754300 -0.000006 -0.000006 -0.012351 0.288103 -4.863350
0.000000 0.000000 0.000000 0.000000 0.000000 -0.000000 -3.143940 91.521800 1.338510 82.568100 -3.176920 1.774650 15.735700 0.000005 -0.000001 97.286900 88.025200 -94.814500 8.984550 -0.406207 -0.000000 -3.848940 0.250210 4.955200 16.377300 -0.000001 -0.000001 10.148400 0.420689 -7.774160 6.456720 -0.000001 -0.000000 5.411870 -3.254160 -19.687100 12.994200 -0.242716 4.980390 -93.174400 8.711070 -69.887800 5.348090 -0.000007 -0.000001 -73.076800 5.429840 1.254580 24.328600 0.000019 0.000005 34.110600 -38.297200 -132.458000 22.291600 -0.000001 0.000005 43.127900 5.031320 6.645970 12.994500 -0.242716 -4.980390 88.430000 4.734040 -71.628600 -5.348130 -0.000001 -0.000004 -72.467300 31.162800 -2.646810 -24.328900 0.000322 -0.000009 2.204300 7.533770 -16.368500 -22.291500 -0.000108 -0.000004 1.481100 5.251900 1.382450 -2.192480 -6.469440 -0.000000 -170.303000 -0.516156 -4.923060 39.081100 -0.000007 -0.000012 0.466987 -0.810291 29.957000 40.985400 -0.000006 -0.000013 1.063670 7.594520 -78.789100 11.754300 -0.000000 0.000003 -0.000115 0.169543 -9.700150 -2.192510 6.469440 -0.000001 -168.585000 6.474540 -177.184000 -39.081100 -0.002282 -0.040193 0.108830 -0.379336 15.542400 -40.985400 0.000008 0.000006 4.655340 2.280280 -72.194200 -11.754300 -0.000006 -0.000006 -0.012775 0.290988 -4.745160
0.000000 0.000000 0.000000 0.000000 0.000000 -0.000000 -3.139640 91.521000 1.329340 82.573700 -3.168780 1.788510 15.735700 0.000005 -0.000001 97.515500 88.012300 -95.035000 8.984550 -0.406207 -0.000000 -3.825850 0.268886 4.971990 16.377300 -0.000001 -0.000001 10.153100 0.421172 -7.724830 6.456720 -0.000001 -0.000000 5.422930 -3.196290 -19.645800 12.994200 -0.242716 4.980390 -93.164100 8.667660 -69.856100 5.348090 -0.000007 -0.000001 -73.106700 5.510070 1.187750 24.328600 0.000019 0.000005 34.698600 -38.622700 -132.035000 22.291600 -0.000001 0.000005 43.417000 5.010630 7.080680 12.994500 -0.242716 -4.980390 88.432900 4.722810 -71.619600 -5.348130 -0.000001 -0.000004 -72.429000 31.204700 -2.649140 -24.328900 0.000322 -0.000009 2.163350 7.392740 -16.369000 -22.291500 -0.000108 -0.000004 1.543500 5.252180 1.375090 -2.192480 -6.469440 -0.000000 -170.314000 -0.513521 -4.927680 39.081100 -0.000007 -0.000012 0.467419 -0.810543 29.972200 40.985400 -0.000006 -0.000013 1.051010 7.565370 -78.791500 11.754300 -0.000000 0.000003 -0.000144 0.170017 -9.680870 -2.192510 6.469440 -0.000001 -168.551000 6.310910 -177.170000 -39.081100 -0.002282 -0.040193 0.110014 -0.384142 15.521300 -40.985400 0.000008 0.000006 4.676710 2.100080 -72.124200 -11.754300 -0.000006 -0.000006 -0.012282 0.287634 -4.882590
